name Walk10.mot
datacolumns 19
datarows 30
range 2.23000000 2.37500000
endheader

                time	   L_ground_force_vx	   L_ground_force_vy	   L_ground_force_vz	   L_ground_force_px	   L_ground_force_py	   L_ground_force_pz	   R_ground_force_vx	   R_ground_force_vy	   R_ground_force_vz	   R_ground_force_px	   R_ground_force_py	   R_ground_force_pz	   L_ground_torque_x	   L_ground_torque_y	   L_ground_torque_z	   R_ground_torque_x	   R_ground_torque_y	   R_ground_torque_z	
          2.23000000	          1.58722316	          5.44718674	         -0.28104887	          0.21786798	          0.00000000	          0.10813244	          0.00000000	          0.00000000	          0.00000000	         -0.00000000	          0.00000000	          0.00000000	          0.00000000	          0.07165113	          0.00000000	          0.00000000	          0.00000000	          0.00000000	
          2.23500000	         -1.34935858	         -1.72370901	         -0.02983365	          0.15834993	          0.00000000	          0.07871363	          0.00000000	          0.00000000	          0.00000000	         -0.00000000	          0.00000000	          0.00000000	          0.00000000	          0.05301931	          0.00000000	          0.00000000	          0.00000000	          0.00000000	
          2.24000000	         -3.12581362	         -6.18594100	          0.13362528	          0.10765859	          0.00000000	          0.05362262	          0.00000000	          0.00000000	          0.00000000	         -0.00000000	          0.00000000	          0.00000000	          0.00000000	          0.03687789	          0.00000000	          0.00000000	          0.00000000	          0.00000000	
          2.24500000	         -4.01780575	         -8.55825080	          0.22788018	          0.06663672	          0.00000000	          0.03329134	          0.00000000	          0.00000000	          0.00000000	         -0.00000000	          0.00000000	          0.00000000	          0.00000000	          0.02361012	          0.00000000	          0.00000000	          0.00000000	          0.00000000	
          2.25000000	         -4.27206318	         -9.40271296	          0.27030145	          0.03506003	          0.00000000	          0.01762034	          0.00000000	          0.00000000	          0.00000000	         -0.00000000	          0.00000000	          0.00000000	          0.00000000	          0.01323448	          0.00000000	          0.00000000	          0.00000000	          0.00000000	
          2.25500000	         -4.09724500	         -9.20060927	          0.27612782	          0.01203769	          0.00000000	          0.00617728	          0.00000000	          0.00000000	          0.00000000	         -0.00000000	          0.00000000	          0.00000000	          0.00000000	          0.00553410	          0.00000000	          0.00000000	          0.00000000	          0.00000000	
          2.26000000	         -3.66109494	         -8.34334715	          0.25802578	         -0.00367813	          0.00000000	         -0.00164949	          0.00000000	          0.00000000	          0.00000000	         -0.00000000	          0.00000000	          0.00000000	          0.00000000	          0.00015831	          0.00000000	          0.00000000	          0.00000000	          0.00000000	
          2.26500000	         -3.09185202	         -7.13374368	          0.22601058	         -0.01346548	          0.00000000	         -0.00653818	          0.00000000	          0.00000000	          0.00000000	         -0.00000000	          0.00000000	          0.00000000	          0.00000000	         -0.00330160	          0.00000000	          0.00000000	          0.00000000	          0.00000000	
          2.27000000	         -2.48227945	         -5.79385554	          0.18760514	         -0.01867697	          0.00000000	         -0.00915612	          0.00000000	          0.00000000	          0.00000000	         -0.00000000	          0.00000000	          0.00000000	          0.00000000	         -0.00525925	          0.00000000	          0.00000000	          0.00000000	          0.00000000	
          2.27500000	         -1.89505408	         -4.47638731	          0.14813918	         -0.02054187	          0.00000000	         -0.01011081	          0.00000000	         -0.00000000	          0.00000000	         -0.00000000	          0.00000000	          0.00000000	          0.00000000	         -0.00609872	          0.00000000	          0.00000000	          0.00000000	          0.00000000	
          2.28000000	         -1.36860196	         -3.27749235	          0.11111441	         -0.02011318	          0.00000000	         -0.00992339	         -0.00000000	         -0.00000000	          0.00000000	         -0.00000000	          0.00000000	          0.00000000	          0.00000000	         -0.00615471	          0.00000000	          0.00000000	          0.00000000	          0.00000000	
          2.28500000	         -0.92275855	         -2.24945422	          0.07858333	         -0.01824756	          0.00000000	         -0.00901839	         -0.00000000	         -0.00000000	         -0.00000000	         -0.00000000	          0.00000000	          0.00000000	          0.00000000	         -0.00570386	          0.00000000	          0.00000000	          0.00000000	          0.00000000	
          2.29000000	         -0.56386876	         -1.41228865	          0.05150679	         -0.01560801	          0.00000000	         -0.00772478	         -0.00000000	         -0.00000000	         -0.00000000	         -0.00000000	          0.00000000	          0.00000000	          0.00000000	         -0.00496363	          0.00000000	          0.00000000	          0.00000000	          0.00000000	
          2.29500000	         -0.28912449	         -0.76373563	          0.03006957	         -0.01268092	          0.00000000	         -0.00628428	         -0.00000000	         -0.00000000	         -0.00000000	          0.00000000	          0.00000000	         -0.00000000	          0.00000000	         -0.00409637	          0.00000000	          0.00000000	         -0.00000000	          0.00000000	
          2.30000000	         -0.09007006	         -0.28742889	          0.01394415	         -0.00980092	          0.00000000	         -0.00486350	         -0.00000000	         -0.00000000	         -0.00000000	          0.00000000	          0.00000000	         -0.00000000	          0.00000000	         -0.00321624	          0.00000000	          0.00000000	         -0.00000000	          0.00000000	
          2.30500000	          0.04470314	          0.04074954	          0.00250042	         -0.00717890	          0.00000000	         -0.00356774	         -0.00000000	         -0.00000000	         -0.00000000	          0.00000000	          0.00000000	         -0.00000000	          0.00000000	         -0.00239747	          0.00000000	          0.00000000	         -0.00000000	          0.00000000	
          2.31000000	          0.12759510	          0.24798122	         -0.00503598	         -0.00492969	          0.00000000	         -0.00245463	         -0.00000000	         -0.00000000	         -0.00000000	          0.00000000	          0.00000000	         -0.00000000	          0.00000000	         -0.00168279	          0.00000000	          0.00000000	         -0.00000000	          0.00000000	
          2.31500000	          0.17066089	          0.36126256	         -0.00947064	         -0.00309743	          0.00000000	         -0.00154668	         -0.00000000	         -0.00000000	         -0.00000000	          0.00000000	          0.00000000	         -0.00000000	          0.00000000	         -0.00109139	          0.00000000	          0.00000000	         -0.00000000	          0.00000000	
          2.32000000	          0.18478093	          0.40533620	         -0.01156548	         -0.00167747	          0.00000000	         -0.00084211	         -0.00000000	         -0.00000000	         -0.00000000	          0.00000000	          0.00000000	         -0.00000000	          0.00000000	         -0.00062583	          0.00000000	          0.00000000	         -0.00000000	          0.00000000	
          2.32500000	          0.17922190	          0.40154257	         -0.01199418	         -0.00063421	          0.00000000	         -0.00032368	         -0.00000000	         -0.00000000	         -0.00000000	          0.00000000	          0.00000000	         -0.00000000	          0.00000000	         -0.00027777	          0.00000000	          0.00000000	         -0.00000000	          0.00000000	
          2.33000000	          0.16148271	          0.36735263	         -0.01132050	          0.00008497	          0.00000000	          0.00003438	         -0.00000000	         -0.00000000	         -0.00000000	          0.00000000	          0.00000000	         -0.00000000	          0.00000000	         -0.00003260	          0.00000000	          0.00000000	         -0.00000000	          0.00000000	
          2.33500000	          0.13733559	          0.31637413	         -0.00999317	          0.00053945	          0.00000000	          0.00026128	         -0.00000000	         -0.00000000	         -0.00000000	          0.00000000	          0.00000000	         -0.00000000	          0.00000000	          0.00012720	          0.00000000	          0.00000000	         -0.00000000	          0.00000000	
          2.34000000	          0.11098892	          0.25866124	         -0.00835164	          0.00078823	          0.00000000	          0.00038612	         -0.00000000	         -0.00000000	         -0.00000000	          0.00000000	          0.00000000	         -0.00000000	          0.00000000	          0.00021961	          0.00000000	          0.00000000	         -0.00000000	          0.00000000	
          2.34500000	          0.08531543	          0.20119410	         -0.00663844	          0.00088543	          0.00000000	          0.00043564	         -0.00000000	          0.00000000	         -0.00000000	          0.00000000	          0.00000000	         -0.00000000	          0.00000000	          0.00026151	          0.00000000	          0.00000000	         -0.00000000	          0.00000000	
          2.35000000	          0.06210410	          0.14842952	         -0.00501478	          0.00087774	          0.00000000	          0.00043294	          0.00000000	          0.00000000	         -0.00000000	          0.00000000	          0.00000000	         -0.00000000	          0.00000000	          0.00026770	          0.00000000	          0.00000000	         -0.00000000	          0.00000000	
          2.35500000	          0.04230744	          0.10285364	         -0.00357695	          0.00080338	          0.00000000	          0.00039697	          0.00000000	          0.00000000	          0.00000000	          0.00000000	          0.00000000	         -0.00000000	          0.00000000	          0.00025049	          0.00000000	          0.00000000	         -0.00000000	          0.00000000	
          2.36000000	          0.02626622	          0.06549223	         -0.00237200	          0.00069217	          0.00000000	          0.00034251	          0.00000000	          0.00000000	          0.00000000	          0.00000000	          0.00000000	         -0.00000000	          0.00000000	          0.00021965	          0.00000000	          0.00000000	         -0.00000000	          0.00000000	
          2.36500000	          0.01390195	          0.03635343	         -0.00141170	          0.00056610	          0.00000000	          0.00028049	          0.00000000	          0.00000000	          0.00000000	         -0.00000000	          0.00000000	         -0.00000000	          0.00000000	          0.00018250	          0.00000000	          0.00000000	         -0.00000000	          0.00000000	
          2.37000000	          0.00487351	          0.01479217	         -0.00068423	          0.00044049	          0.00000000	          0.00021854	          0.00000000	          0.00000000	          0.00000000	         -0.00000000	          0.00000000	          0.00000000	          0.00000000	          0.00014424	          0.00000000	          0.00000000	          0.00000000	          0.00000000	
          2.37500000	         -0.00130169	         -0.00020453	         -0.00016360	          0.00032510	          0.00000000	          0.00016153	          0.00000000	          0.00000000	          0.00000000	         -0.00000000	          0.00000000	          0.00000000	          0.00000000	          0.00010830	          0.00000000	          0.00000000	          0.00000000	          0.00000000	
